<svg width="82" height="69" viewBox="0 0 82 69" fill="none" xmlns="http://www.w3.org/2000/svg">
<path d="M24.1913 20.7808C23.2798 20.7214 23.9809 25.6842 24.0944 26.2901C24.0967 26.2972 24.0961 26.3049 24.0928 26.3115C24.0894 26.3182 24.0836 26.3232 24.0765 26.3255C24.0694 26.3278 24.0618 26.3272 24.0551 26.3239C24.0485 26.3205 24.0435 26.3147 24.0411 26.3076C23.2257 24.5887 22.5164 22.8454 21.9134 21.0777C21.7484 20.5931 21.5877 19.9348 21.6392 19.4127C21.758 18.2078 22.5394 17.1408 23.4605 16.3969C23.471 16.3885 23.479 16.3774 23.4837 16.3648C23.4883 16.3522 23.4893 16.3385 23.4867 16.3253C22.7661 12.7246 22.2076 9.10035 21.8112 5.45249C21.7108 4.53136 21.2402 0.604978 21.8488 0.0252328C21.8697 0.00544229 21.8945 -0.00270664 21.923 0.000785806C22.3901 0.0645229 22.8005 1.38729 22.9349 1.88583C23.808 5.11285 24.3066 8.02205 24.9789 11.724C25.2792 13.3783 25.5068 14.777 25.6616 15.9202C25.6657 15.9499 25.6811 15.9706 25.7079 15.9822C27.1529 16.6152 28.5438 17.7424 28.6948 19.4065C28.7286 19.7837 28.6931 20.4758 28.5883 21.4828C28.4393 22.9124 28.2335 24.3291 27.971 25.7331C27.9695 25.7398 27.9657 25.7457 27.9602 25.7498C27.9547 25.7538 27.948 25.7559 27.9412 25.7554C27.9343 25.755 27.9279 25.7522 27.923 25.7475C27.918 25.7427 27.915 25.7364 27.9143 25.7296C27.8619 25.0512 27.3633 20.4324 26.4955 20.4508C26.4623 20.4514 26.4405 20.4674 26.43 20.4988C26.3217 20.8288 26.2612 21.0884 26.2484 21.2776C26.1436 22.8242 26.1031 24.3673 26.127 25.9069C26.127 25.9121 26.1251 25.9172 26.1217 25.9212C26.1182 25.9251 26.1135 25.9277 26.1083 25.9285C26.1031 25.9292 26.0978 25.928 26.0934 25.9252C26.0889 25.9223 26.0857 25.918 26.0842 25.913C25.7082 24.5468 25.2769 23.195 24.7903 21.8574C24.6637 21.5099 24.5196 21.0829 24.2594 20.8131C24.2408 20.7933 24.2181 20.7826 24.1913 20.7808Z" fill="#FE724C"/>
<path d="M39.8675 15.5213C39.4947 15.4462 39.5846 14.202 39.61 13.9331C39.6685 13.321 39.727 12.6426 40.325 12.3623C41.0174 12.0384 42.0713 12.0838 42.8003 12.2602C43.938 12.5352 44.461 14.2745 43.676 15.1161C42.9234 15.9238 40.8157 15.7125 39.8675 15.5213Z" fill="#FE724C"/>
<path d="M49.8445 17.6755C49.4717 17.9636 48.9653 17.5227 49.084 17.1341C49.1178 17.0253 49.2243 16.8905 49.4036 16.7299C50.0523 16.1484 50.6085 15.4534 50.7534 14.5803C50.8041 14.2738 50.9953 14.0215 51.3279 14.0948C51.892 14.2179 51.7654 14.8099 51.6466 15.229C51.3829 16.1667 50.6041 17.0896 49.8445 17.6755Z" fill="#FE724C"/>
<path d="M44.0373 19.3624C42.8044 18.8394 43.0777 17.9261 43.6356 16.9849C44.1857 16.0568 45.9564 15.6971 46.8408 16.2314C47.6563 16.7239 48.1645 17.996 47.5446 18.8246C46.7911 19.8321 45.0999 19.8129 44.0373 19.3624ZM44.1988 18.2998C44.7489 18.5949 45.3146 18.6991 45.8961 18.6124C46.2122 18.5652 46.8112 18.34 46.7928 17.9611C46.7701 17.4739 46.4348 17.0059 45.8944 17.0155C45.4089 17.0251 44.6659 17.1447 44.4442 17.6398C44.351 17.8481 44.2631 18.0516 44.1805 18.2501C44.1769 18.2593 44.1768 18.2695 44.1802 18.2787C44.1836 18.2878 44.1902 18.2954 44.1988 18.2998Z" fill="#FE724C"/>
<path d="M37.8711 20.6034C37.1927 20.1285 36.1581 19.3741 36.5842 18.3814C36.9229 17.5947 38.3644 16.4151 39.2349 16.5059C39.4817 16.531 39.7341 16.6305 39.9919 16.8045C40.7614 17.3232 41.1078 18.0863 41.0309 19.0938C40.9646 19.9661 39.8121 20.5903 39.0708 20.8016C38.636 20.9256 38.2361 20.8595 37.8711 20.6034ZM37.6441 19.1104C37.9593 19.361 38.4858 19.9905 38.9328 19.8106C39.2149 19.6971 39.8889 19.3435 39.9841 18.9934C40.15 18.3796 39.785 17.82 39.2245 17.5432C39.2012 17.5315 39.1764 17.5275 39.1502 17.531C38.943 17.5589 38.7771 17.6148 38.6526 17.6986C38.4456 17.8392 37.5839 18.5307 37.5289 18.831C37.5085 18.9399 37.5469 19.033 37.6441 19.1104Z" fill="#FE724C"/>
<path d="M55.6375 21.7385C55.1189 21.6189 54.7679 21.2705 54.4597 20.8584C53.8939 20.1023 54.1576 19.5147 54.5365 18.7036C54.7094 18.3343 54.8701 17.9545 55.111 17.6506C55.7475 16.8448 56.9219 16.334 57.8369 17.0421C58.4323 17.504 58.6759 18.0435 58.758 18.8189C58.8052 19.2601 58.7988 19.6431 58.7388 19.9679C58.6559 20.4193 58.0569 20.7153 57.7059 20.9318C57.0677 21.3256 56.4705 21.9315 55.6375 21.7385Z" fill="#FE724C"/>
<path d="M32.9681 20.223C33.5199 19.7829 34.0333 19.4276 34.7326 19.7035C35.7551 20.1077 35.9925 21.441 35.6966 22.4145C35.6343 22.6199 35.5659 22.8231 35.4914 23.0239C35.4803 23.053 35.489 23.074 35.5176 23.0868C38.1107 24.2725 36.9739 26.8743 34.345 26.4255C33.925 26.354 33.8543 25.7602 34.1424 25.5454C34.5676 25.2294 35.4704 25.6904 35.8624 25.1648C36.3575 24.5003 34.8863 23.9302 34.5222 23.7591C34.0822 23.5521 33.9748 23.2003 34.324 22.8449C34.8077 22.3534 35.0732 21.3126 34.5082 20.7495C34.1049 20.3461 33.512 21.1782 33.2763 21.4916C32.9855 21.8766 32.5603 21.7518 32.3691 21.3606C32.1832 20.9791 32.047 20.6325 31.6768 20.3897C31.652 20.3735 31.624 20.3627 31.5948 20.3583C31.5655 20.3539 31.5356 20.3558 31.5071 20.364C31.4787 20.3722 31.4523 20.3865 31.4299 20.4059C31.4075 20.4252 31.3895 20.4492 31.3773 20.4762C31.1223 21.0411 31.31 21.7238 31.4899 22.2861C31.5452 22.4584 31.5624 22.5929 31.5414 22.6895C31.4663 23.0309 31.0045 23.1671 30.7521 22.9558C30.4317 22.6878 30.3051 21.8269 30.2632 21.4148C30.1741 20.5425 30.4151 19.5044 31.4131 19.3595C32.0347 19.2695 32.5926 19.707 32.9043 20.2125C32.9212 20.2398 32.9425 20.2433 32.9681 20.223Z" fill="#FE724C"/>
<path d="M48.0028 22.1213C48.1312 21.6856 48.3477 21.1975 48.6638 20.8806C49.3815 20.1603 50.4466 20.2004 51.1975 20.8343C51.779 21.325 51.9309 21.882 51.9938 22.6294C51.9967 22.6649 52.0153 22.6783 52.0497 22.6696C52.7429 22.495 53.7505 22.4408 54.332 22.9001C55.068 23.4807 54.848 24.387 54.2901 25.027C53.9679 25.3972 52.928 26.3323 52.4775 26.1646C51.862 25.9359 52.1492 25.398 52.5456 25.1527C52.997 24.8733 53.4126 24.6096 53.6798 24.1582C54.2595 23.1795 52.0436 23.6929 51.7327 23.7959C51.3372 23.9269 50.9155 23.9548 50.8378 23.4589C50.8038 23.2415 50.9347 22.9961 50.9531 22.7936C51.0095 22.148 50.7802 21.6998 50.265 21.449C49.3491 21.0019 48.9877 22.2819 48.8829 22.8695C48.6411 24.2298 47.3183 22.5107 46.4958 23.1777C45.9449 23.6248 46.9787 24.5433 47.3654 24.772C48.1041 25.2095 47.5593 26.0642 46.8975 25.6635C45.9816 25.1082 44.8072 23.8701 45.5284 22.7473C46.0287 21.9693 47.0686 21.8358 47.8963 22.1728C47.951 22.1949 47.9865 22.1777 48.0028 22.1213Z" fill="#FE724C"/>
<path d="M38.4142 24.2456C37.9715 23.4624 39.152 22.7351 39.5571 21.9686C40.0216 21.0902 41.1008 21.2264 41.9189 21.4421C42.6936 21.6464 43.3086 21.8673 43.7637 22.1048C44.3129 22.3911 43.5402 23.9994 43.342 24.3085C42.5527 25.5422 41.1584 25.3588 39.9456 25.0428C39.4305 24.9083 38.6744 24.7058 38.4142 24.2456ZM39.4741 23.7977C40.1162 24.0474 40.764 24.1982 41.4177 24.25C42.3214 24.3207 42.6462 23.6379 42.8452 22.8871C42.8522 22.8603 42.8432 22.8417 42.8182 22.8312C42.2873 22.6085 41.0955 22.1851 40.5813 22.3388C40.5527 22.3475 40.5306 22.3644 40.5149 22.3894C40.2105 22.8713 39.858 23.3155 39.4576 23.7218C39.4522 23.7274 39.4484 23.7343 39.4463 23.7417C39.4442 23.7492 39.444 23.757 39.4456 23.7646C39.4472 23.7721 39.4507 23.779 39.4557 23.7848C39.4607 23.7906 39.467 23.795 39.4741 23.7977Z" fill="#FE724C"/>
<path d="M58.1663 26.0161C57.9018 26.0746 57.0514 26.0641 57.1623 25.5769C57.2112 25.3615 57.3043 25.1633 57.4416 24.9823C58.3281 23.8129 59.4256 22.925 60.7341 22.3184C60.9777 22.2058 61.265 22.246 61.4082 22.4966C61.7129 23.0318 61.1061 24.0559 60.742 24.427C60.1317 25.0495 59.022 25.8283 58.1663 26.0161Z" fill="#FE724C"/>
<path d="M32.2728 24.1187C31.4887 24.4846 31.129 23.6045 31.8214 23.2168C32.533 22.8196 33.2157 23.2186 33.6986 23.787C33.8301 23.9412 33.8941 24.0891 33.8906 24.2305C33.8837 24.5108 33.5589 24.7875 33.2646 24.6959C32.9276 24.5902 32.6534 23.9415 32.2728 24.1187Z" fill="#FE724C"/>
<path d="M49.0249 26.0846C48.6303 26.2741 48.1902 25.876 48.3439 25.4473C48.6704 24.5375 49.7304 24.3332 50.5773 24.5043C51.1588 24.6213 51.3299 25.3084 50.724 25.5023C50.5773 25.5503 50.3311 25.5049 50.1713 25.4787C49.7726 25.4123 49.4702 25.5296 49.2641 25.8306C49.1698 25.9685 49.0901 26.0532 49.0249 26.0846Z" fill="#FE724C"/>
<path d="M30.2265 39.6589C27.258 37.5486 24.4212 34.9624 22.1319 32.1458C21.5478 31.4272 20.8921 30.5227 20.5935 29.6417C20.3883 29.0392 20.4887 28.1181 20.494 27.4755C20.494 27.4476 20.5082 27.4336 20.5368 27.4336H61.4411C61.4702 27.4336 61.4848 27.4481 61.4848 27.4772C61.4836 27.9842 61.4851 28.4886 61.4891 28.9903C61.4979 30.2328 60.0171 31.9546 59.2671 32.812C57.139 35.245 54.7746 37.4214 52.1739 39.3411C51.2484 40.0239 49.8244 41.0541 48.6396 41.0541C43.5482 41.0541 38.4568 41.0541 33.3654 41.0541C33.0604 41.0541 32.8051 41.0241 32.5997 40.9642C31.7885 40.7293 30.9128 40.1461 30.2265 39.6589Z" fill="#FE724C"/>
<path d="M2.26958 63.5941L2.23728 63.698C2.22563 63.7347 2.20235 63.7449 2.16743 63.7286L2.12377 63.7077C2.09176 63.6925 2.06033 63.6937 2.02948 63.7111C1.76289 63.8619 1.52569 63.8584 1.31789 63.7007C0.842046 63.3383 0.928484 62.4897 1.10922 62.0531C1.75241 60.4931 2.40375 58.8927 3.06324 57.2519C3.10631 57.1454 3.0743 57.1128 2.9672 57.1541C2.91714 57.1733 2.84292 57.1846 2.74455 57.1881C2.21021 57.2091 1.77365 57.3392 1.17383 57.4064C-0.320065 57.5723 -0.404757 55.7597 1.01579 55.7335C2.00299 55.7149 2.94741 55.6244 3.84904 55.462C3.87814 55.4568 3.89793 55.4407 3.90841 55.414C4.06295 55.0333 4.29869 54.7233 4.42704 54.3462C4.64473 53.7082 4.90085 53.0857 5.19538 52.4786C5.20818 52.4524 5.214 52.4247 5.21284 52.3956C5.19625 51.9783 5.47652 51.4125 5.65463 51.0196C5.87378 50.5359 6.01348 50.047 6.20556 49.5545C6.42821 48.9861 6.55132 48.402 6.79317 47.8362C6.89357 47.6031 7.33886 47.3298 7.51086 47.3045C8.08595 47.2201 8.48176 47.4116 8.69829 47.879C8.95062 48.4221 8.2792 49.6148 8.10633 50.1116C7.48467 51.8971 6.89008 53.1526 6.20556 54.863C6.16831 54.9562 6.15056 55.0432 6.1523 55.1241C6.15289 55.1689 6.17559 55.1893 6.22041 55.1852L8.86419 54.9373C8.90805 54.933 8.94982 54.9164 8.98461 54.8894C9.01939 54.8623 9.04576 54.8259 9.06064 54.7845C9.32344 54.0414 9.73118 53.2006 9.97653 52.6069C10.448 51.4649 10.9361 50.3301 11.4407 49.2027C11.7027 48.6171 11.891 48.253 12.0056 48.1104C12.34 47.6957 12.9145 47.5673 13.3651 47.8432C14.0828 48.2824 13.3939 49.3624 13.2088 49.9465C13.1349 50.1794 13.0676 50.3525 13.0071 50.4661C12.2684 51.838 11.6078 53.246 11.0251 54.6902C11.0112 54.7239 11.0219 54.7452 11.0574 54.7539C11.3429 54.8237 11.5892 54.5461 11.8127 54.7155C11.836 54.7335 11.861 54.7359 11.8878 54.7225C12.2556 54.5397 12.5796 54.5932 12.8595 54.8831C12.8817 54.9052 12.8866 54.9309 12.8744 54.96C12.8185 55.0967 12.8415 55.2216 12.9434 55.3345C12.9513 55.3433 12.9565 55.3543 12.9582 55.3659C12.96 55.3776 12.9581 55.3895 12.953 55.4C12.8194 55.6637 12.7251 55.8863 12.4588 56.0487C12.2833 56.1552 12.182 56.2478 11.9681 56.2836C11.4279 56.3732 10.8956 56.4518 10.3712 56.5193C10.3487 56.522 10.3274 56.5306 10.3094 56.5443C10.2914 56.558 10.2775 56.5762 10.269 56.597C9.98788 57.2763 9.78444 58.0578 9.5522 58.6759C9.24486 59.4937 8.95266 60.3171 8.67559 61.1459C8.5228 61.6026 8.25388 62.0636 8.08886 62.5525C8.07897 62.5822 8.0583 62.5968 8.02687 62.5962C7.94538 62.5938 7.89067 62.634 7.86273 62.7167C7.85458 62.7399 7.83799 62.7539 7.81296 62.7586C7.63135 62.7941 7.48758 62.8904 7.38164 63.0476C7.3663 63.0706 7.34266 63.0868 7.31566 63.0928C7.28866 63.0988 7.26038 63.0942 7.23671 63.0799C7.10691 63.0013 6.96954 62.9396 6.8246 62.8948C6.79782 62.8866 6.77483 62.8724 6.75562 62.852C6.39852 62.4713 6.52861 61.5301 6.6753 61.1398C7.19742 59.7469 7.72157 58.3549 8.24777 56.9637C8.26931 56.9061 8.2824 56.7984 8.28706 56.6407C8.28764 56.6122 8.27367 56.5982 8.24515 56.5988C7.85109 56.6063 7.57256 56.6235 7.40958 56.6503C7.21139 56.6826 7.03938 56.6442 6.86651 56.6826C6.43752 56.7786 6.00475 56.8505 5.56819 56.8983C5.20585 56.9384 5.2076 57.1253 5.09497 57.3951C4.69683 58.3497 4.29432 59.3022 3.88745 60.2528C3.58099 60.9678 3.07022 62.37 2.53675 63.389C2.47476 63.5068 2.45905 63.5164 2.32808 63.5409C2.29839 63.5467 2.27889 63.5645 2.26958 63.5941Z" fill="#202020"/>
<path d="M74.9306 54.1557C74.8928 54.2843 74.9172 54.2951 75.004 54.188C75.7872 53.224 77.0436 51.5878 78.4047 52.0776C78.6518 52.1667 78.7749 52.3544 78.9286 52.5517C79.318 53.0564 79.1434 53.7601 78.8596 54.2665C78.0826 55.6583 77.2776 57.1731 76.9196 58.736C76.8946 58.8466 76.8963 58.9432 76.9248 59.0259C76.9335 59.0503 76.9473 59.0725 76.9653 59.0911C76.9833 59.1096 77.0051 59.1241 77.0292 59.1334C77.0534 59.1428 77.0792 59.1469 77.105 59.1453C77.1309 59.1438 77.1561 59.1367 77.1789 59.1245C77.4769 58.9662 77.7394 58.7639 77.9664 58.5177C78.9921 57.4083 79.9077 56.2144 80.7132 54.9362C80.8221 54.7645 80.9656 54.635 81.1437 54.5477C81.1827 54.5279 81.1964 54.5392 81.1847 54.5817L81.1472 54.7118C81.144 54.723 81.1446 54.7349 81.1489 54.7456C81.1532 54.7564 81.161 54.7654 81.1709 54.7713C81.1809 54.7772 81.1926 54.7796 81.2041 54.7782C81.2156 54.7767 81.2263 54.7715 81.2345 54.7633L81.458 54.5424C81.4993 54.5023 81.5203 54.511 81.5209 54.5686C81.5226 54.6932 81.5965 54.7328 81.7426 54.6874C81.7712 54.6781 81.7939 54.6856 81.8108 54.7101L81.9862 54.958C82.0078 54.9889 82.0066 55.0186 81.9828 55.0471L81.8238 55.2348C81.8017 55.261 81.7994 55.2889 81.8169 55.3186C81.8855 55.4385 81.8748 55.5739 81.7846 55.7246C81.0482 56.9516 80.2281 58.073 79.3241 59.0887C78.8492 59.6222 77.9324 60.4586 77.1955 60.5739C76.6184 60.6638 76.0797 60.7232 75.6876 60.3146C74.7709 59.3568 75.6658 57.1085 76.1399 56.0512C76.414 55.44 76.8497 54.7677 77.1929 54.1155C77.2147 54.0727 77.247 53.9548 77.2496 53.9129C77.2513 53.8874 77.2459 53.8619 77.2341 53.8392C77.2222 53.8165 77.2044 53.7975 77.1825 53.7843C77.1606 53.7711 77.1355 53.7641 77.1099 53.7641C77.0844 53.7642 77.0593 53.7713 77.0375 53.7846C76.8279 53.9103 76.6288 54.0334 76.4542 54.2063C75.293 55.3544 74.2583 56.7444 73.6899 58.2881C73.5092 58.7753 73.1774 59.4546 73.022 60.0841C73.0184 60.0982 73.012 60.1115 73.0032 60.1232C72.9943 60.1349 72.9832 60.1447 72.9705 60.1522C72.8459 60.2238 72.7572 60.328 72.7042 60.4648C72.6926 60.4939 72.6725 60.5145 72.644 60.5267C72.3 60.6743 71.859 60.7197 71.5718 60.429C71.3343 60.1897 71.1509 60.0788 71.2138 59.6536C71.2505 59.4057 71.3011 59.1641 71.3657 58.9289C71.367 58.9236 71.3665 58.9181 71.3644 58.9131C71.3623 58.9081 71.3586 58.9039 71.3539 58.9011C71.3492 58.8984 71.3437 58.8972 71.3383 58.8978C71.3329 58.8984 71.3278 58.9008 71.3238 58.9045C70.2621 59.9592 68.8442 60.8306 67.3416 60.7171C66.4027 60.6461 65.8145 60.16 65.577 59.259C65.5683 59.2264 65.5528 59.2226 65.5307 59.2476C65.1838 59.6347 64.8954 59.9129 64.6655 60.0823C62.7359 61.5055 60.9949 60.3932 61.497 58.0454C61.7385 56.9132 62.1335 55.7665 62.6818 54.6053C62.7307 54.5017 62.7155 54.4007 62.6364 54.3023C62.6172 54.279 62.5939 54.2738 62.5665 54.2866C62.0453 54.5311 61.6803 55.0768 61.3747 55.5422C60.3872 57.0474 59.5971 58.2505 58.9553 59.6362C58.943 59.6631 58.9212 59.6843 58.8942 59.6955C58.724 59.7671 58.5292 59.885 58.3511 59.8841C57.5322 59.8789 57.4806 59.018 57.7007 58.4269C58.0959 57.3629 58.4559 56.2872 58.7807 55.1999C58.8689 54.9065 58.9012 54.6455 58.8759 54.3626C58.8734 54.3348 58.8639 54.3081 58.8482 54.285C58.8326 54.2619 58.8113 54.2432 58.7864 54.2306C58.7615 54.218 58.7338 54.212 58.7059 54.2131C58.678 54.2142 58.6509 54.2223 58.627 54.2368C58.304 54.4324 58.0447 54.6883 57.8037 55.0148C56.7132 56.4947 56.1046 58.0358 55.4 59.8073C55.3014 60.0544 55.1765 60.2631 55.0394 60.4813C55.0243 60.5064 55.0033 60.525 54.9766 60.5372C54.6663 60.6804 54.3645 60.6822 54.0711 60.5425C53.6215 60.3277 53.6285 59.6501 53.7821 59.2599C54.6247 57.1225 55.276 55.0881 55.9361 52.9708C56.0627 52.5631 56.3255 51.8515 56.721 51.6568C57.0616 51.4892 57.4248 51.5756 57.6675 51.8672C58.0997 52.3859 57.6203 52.9979 57.3671 53.5602C57.3649 53.5657 57.3644 53.5718 57.3659 53.5776C57.3673 53.5834 57.3706 53.5886 57.3752 53.5923C57.3798 53.596 57.3855 53.598 57.3913 53.5981C57.3971 53.5981 57.4027 53.5961 57.4073 53.5925C57.7295 53.3489 57.9556 53.0337 58.3459 52.7552C58.9745 52.3055 59.9131 52.1859 60.2327 53.0966C60.3916 53.5506 60.2091 54.2141 60.0677 54.7005C60.0666 54.7056 60.0673 54.7109 60.0696 54.7156C60.0719 54.7203 60.0757 54.7242 60.0804 54.7265C60.0851 54.7288 60.0904 54.7294 60.0956 54.7284C60.1007 54.7273 60.1053 54.7245 60.1087 54.7206C60.3907 54.325 60.6692 53.8763 60.9836 53.5506C61.4743 53.0424 62.2173 52.447 62.9376 52.3649C63.3296 52.3212 63.6745 52.2977 64.0028 52.5526C64.8925 53.2441 64.4795 54.2011 64.1049 55.0873C63.7144 56.0122 63.3823 56.9575 63.1087 57.9231C63.0127 58.2636 62.9943 58.6004 63.0537 58.9333C63.0587 58.961 63.0694 58.9874 63.085 59.0108C63.1006 59.0342 63.1209 59.0541 63.1446 59.0694C63.1682 59.0846 63.1948 59.0948 63.2226 59.0993C63.2503 59.1039 63.2788 59.1026 63.306 59.0957C63.5261 59.0398 63.7557 58.9333 63.9286 58.7657C64.6573 58.0561 65.2921 57.2724 65.8328 56.4144C66.1733 55.8739 66.492 55.2016 66.8098 54.5878C67.1567 53.919 67.6556 53.2974 68.3063 52.7229C68.9201 52.1816 70.2787 51.3268 71.0453 51.9554C72.045 52.7761 71.3308 54.146 70.8523 55.0454C70.4184 55.86 68.8084 57.9685 67.6978 56.8693C67.693 56.8647 67.6871 56.8612 67.6808 56.8592C67.6744 56.8571 67.6677 56.8566 67.6612 56.8576C67.6546 56.8587 67.6485 56.8612 67.6432 56.865C67.6378 56.8689 67.6335 56.8739 67.6306 56.8798C67.3581 57.3984 67.0307 58.4129 67.2481 58.9761C67.4035 59.3777 68.2112 59.252 68.5106 59.1254C70.2158 58.4051 71.3421 57.0256 72.4292 55.66C72.5415 55.5197 72.6285 55.36 72.6902 55.1807C73.3835 53.1824 74.1277 51.2042 74.9228 49.2462C75.1681 48.642 75.1716 47.9426 76.0482 47.9705C76.5884 47.9868 76.9027 48.252 76.9912 48.7659C77.061 49.1693 76.7912 49.5552 76.6472 49.9228C76.1117 51.2907 75.5593 52.6516 74.99 54.0055C74.9563 54.0852 74.9365 54.1353 74.9306 54.1557ZM69.9015 53.3341C69.2868 53.5288 68.5211 54.6446 68.2269 55.1737C68.1157 55.3728 68.0776 55.5587 68.1125 55.7316C68.1201 55.7671 68.1413 55.7811 68.1763 55.7735C69.0363 55.5937 69.7103 54.4918 70.0674 53.7104C70.1285 53.5768 70.1032 53.4388 69.9914 53.3506C69.9647 53.3291 69.9347 53.3236 69.9015 53.3341Z" fill="#202020"/>
<path d="M41.5983 59.0039C40.7854 59.8351 38.8873 61.7446 37.6413 60.8584C36.0584 59.7347 38.3119 56.1209 39.0043 55.0181C39.2208 54.6733 39.4923 54.3572 39.7508 54.0254C39.7601 54.014 39.7654 53.9999 39.7658 53.9852C39.7663 53.9704 39.762 53.956 39.7534 53.944C39.7449 53.932 39.7327 53.9231 39.7187 53.9188C39.7046 53.9144 39.6895 53.9147 39.6757 53.9198L38.2097 54.4192C38.1859 54.4273 38.1672 54.4419 38.1539 54.4628C37.7906 55.0292 37.4245 55.5941 37.0555 56.1575C36.88 56.4256 36.7089 56.5871 36.4041 56.6203C35.896 56.6753 35.7807 56.1532 35.9527 55.7873C36.1757 55.3135 36.4181 54.8493 36.68 54.3947C36.6998 54.3592 36.6897 54.3426 36.6495 54.345C35.6498 54.3956 35.1504 53.6997 35.4568 52.803C35.7513 51.941 36.3878 51.441 37.3663 51.303C37.9164 51.2253 38.531 51.4454 38.5633 52.0801C38.573 52.2643 38.4979 52.4844 38.4551 52.6634C38.4236 52.7955 38.4705 52.8348 38.5957 52.7812C39.1509 52.5446 40.5811 51.9448 41.1434 52.1212C41.8611 52.3455 41.8087 53.2562 41.5503 53.8237C41.2802 54.4192 41.0543 54.8325 40.8727 55.0635C40.0014 56.1689 39.3395 57.4489 38.8436 58.7393C38.6175 59.3261 39.1003 59.3243 39.467 59.1314C39.8294 58.941 40.1917 58.4931 40.4859 58.2024C41.2132 57.4829 41.8183 56.5889 42.4522 55.7839C42.9944 55.0941 43.3235 54.0953 43.5846 53.2658C43.6676 53.0039 43.6579 52.6511 43.8169 52.3499C43.8302 52.3243 43.8509 52.3068 43.8788 52.2975C44.0901 52.2303 44.339 52.1316 44.545 52.1447C44.9694 52.1727 45.2051 52.542 45.2828 52.9262C45.3858 53.4413 45.0069 54.3327 44.7851 54.8007C44.2167 55.9986 43.7444 57.1992 43.3428 58.4634C43.3113 58.563 43.3235 58.6677 43.3218 58.7716C43.3206 58.8537 43.3608 58.8918 43.4423 58.886C43.8893 58.8563 45.061 57.4419 45.3649 57.0673C46.4117 55.7751 47.1207 54.2166 47.7328 52.6293C47.9691 52.017 48.4179 51.7917 49.0791 51.9535C49.1041 51.9593 49.1251 51.9721 49.142 51.9919C49.4522 52.3621 49.5145 52.7611 49.3288 53.189C48.3981 55.3263 47.5468 57.0734 46.9985 58.9742C46.7761 59.7478 46.5445 60.5251 46.3035 61.3063C46.3004 61.3159 46.2998 61.3261 46.3018 61.336C46.3039 61.3459 46.3084 61.3551 46.3151 61.3628C46.3217 61.3705 46.3302 61.3764 46.3398 61.3799C46.3494 61.3835 46.3597 61.3846 46.3698 61.3831C47.3919 61.2324 48.428 61.1308 49.4781 61.0784C49.9024 61.0566 50.2072 61.0164 50.6254 61.1509C51.4033 61.4014 51.4548 61.9524 50.7869 62.4081C50.7642 62.4233 50.7389 62.4311 50.7109 62.4317C49.0485 62.4591 47.3957 62.6034 45.7525 62.8648C45.7124 62.8712 45.6827 62.8921 45.6635 62.9276C44.8087 64.5342 43.6038 66.187 42.0558 67.1832C41.6393 67.4512 41.1451 67.6197 40.6597 67.8267C40.045 68.0886 39.4723 68.1087 38.7816 68.0772C37.437 68.0153 36.3771 67.1098 36.4085 65.7015C36.4373 64.4303 37.5837 63.3511 38.7109 62.9189C40.5767 62.2021 42.522 61.9288 44.4787 61.5839C44.5066 61.5787 44.5255 61.563 44.5354 61.5368C44.7031 61.0892 44.8529 60.6378 44.9851 60.1826C45.0523 59.9486 45.0427 59.6753 45.1344 59.4186C45.137 59.4114 45.137 59.4034 45.1345 59.3962C45.1321 59.3889 45.1272 59.3826 45.1207 59.3785C45.1142 59.3743 45.1065 59.3725 45.0988 59.3733C45.0912 59.3741 45.084 59.3774 45.0785 59.3828C44.3608 60.1127 43.6972 60.7658 42.6032 60.7257C41.7808 60.6951 41.5537 59.6762 41.6402 59.0248C41.6472 58.9759 41.6332 58.969 41.5983 59.0039ZM36.7482 53.0763L36.949 53.1671C36.968 53.1757 36.9896 53.1764 37.009 53.169C37.0285 53.1616 37.0443 53.1468 37.0529 53.1278L37.2319 52.7297C37.26 52.667 37.2692 52.5989 37.2576 52.5405C37.246 52.482 37.2144 52.438 37.1699 52.418L37.162 52.4145C37.1175 52.3945 37.0636 52.4002 37.0122 52.4303C36.9608 52.4604 36.9161 52.5125 36.8878 52.5752L36.7089 52.9724C36.7003 52.9914 36.6996 53.013 36.707 53.0325C36.7144 53.052 36.7292 53.0678 36.7482 53.0763ZM38.3328 65.8499C38.6341 66.3895 39.4731 66.4402 40.0083 66.2987C40.7068 66.1145 41.5634 65.5697 42.082 65.1567C42.5037 64.8205 43.3061 63.937 43.6204 63.2865C43.6233 63.2807 43.6244 63.2742 43.6238 63.2678C43.6232 63.2614 43.6208 63.2552 43.6169 63.2501C43.613 63.2449 43.6078 63.2409 43.6018 63.2386C43.5958 63.2362 43.5892 63.2356 43.5829 63.2367C42.722 63.3852 41.8652 63.5577 41.0124 63.7545C40.1952 63.9431 38.9431 64.3264 38.421 65.0729C38.2278 65.3494 38.1984 65.6084 38.3328 65.8499Z" fill="#202020"/>
<path d="M23.3556 54.0728C23.3108 54.2265 23.3364 54.2393 23.4325 54.1113C23.9528 53.4145 24.5972 52.6898 25.335 52.2594C25.8981 51.9311 26.6516 51.8176 27.1493 52.3423C27.9106 53.1465 27.3711 54.0807 26.9415 54.8979C26.2866 56.1439 25.6536 57.3208 25.2939 58.7344C25.2485 58.9142 25.2866 59.0478 25.4083 59.1351C25.4339 59.1532 25.461 59.1561 25.4895 59.1439C25.7165 59.0467 25.8792 58.9492 25.9776 58.8514C26.6813 58.1541 27.3303 57.4102 27.9246 56.6197C28.0393 56.4672 28.1423 56.2812 28.2337 56.0618C28.7116 54.9157 29.4322 53.9425 30.3955 53.1421C31.4948 52.2271 33.0969 51.939 33.4627 53.7961C33.468 53.8228 33.4773 53.8243 33.4907 53.8004C33.6676 53.4884 33.8041 53.1602 33.9002 52.8156C33.9101 52.7818 33.9325 52.7626 33.9674 52.7579C34.0943 52.7405 34.1924 52.6759 34.2616 52.5641C34.2791 52.5356 34.3047 52.5213 34.3385 52.5213C34.5856 52.5187 34.7942 52.5353 34.9636 52.7413C35.1286 52.9404 35.333 53.1622 35.2526 53.4529C35.1313 53.893 35.0501 54.3618 34.8946 54.7774C33.9473 57.3121 33.406 59.0845 32.7398 61.2734C32.7288 61.3077 32.7413 61.3229 32.7774 61.3188C33.7646 61.2082 34.7491 61.1162 35.7311 61.0429C36.3073 61.0001 37.2433 61.0394 37.3324 61.7833C37.3359 61.813 37.3295 61.8409 37.3132 61.8671L37.0128 62.3473C36.9959 62.3729 36.9729 62.3904 36.9438 62.3997C36.8699 62.423 36.7771 62.4349 36.6653 62.4355C35.3359 62.4407 33.8682 62.5554 32.2622 62.7795C32.2037 62.7882 32.1094 62.8764 32.0754 62.9402C31.4409 64.1002 30.7247 65.1081 29.9266 65.9637C28.6196 67.3633 26.6071 68.4198 24.6609 68.0103C23.2194 67.7073 22.4031 66.2318 23.0081 64.8566C23.6376 63.4282 24.9613 62.8895 26.408 62.4888C27.9159 62.0697 29.3583 61.847 30.8521 61.5764C30.8795 61.5717 30.901 61.5577 30.9168 61.5344C30.9959 61.4192 31.0501 61.3156 31.0792 61.2236C31.2893 60.5583 31.5046 59.895 31.7253 59.2338C31.7363 59.1995 31.7273 59.1931 31.6982 59.2146C30.8399 59.8537 29.9354 60.7452 28.734 60.5417C28.0914 60.4329 27.7037 60.012 27.571 59.2792C27.5652 59.2454 27.5503 59.2408 27.5265 59.2652C27.0716 59.7393 26.3591 60.3959 25.7078 60.5461C24.1152 60.9145 23.3984 59.8799 23.7354 58.427C24.0445 57.0894 24.5247 55.7981 25.2904 54.65C25.4342 54.4346 25.5471 54.2082 25.6292 53.9707C25.6336 53.958 25.6346 53.9444 25.6319 53.9312C25.6292 53.918 25.6229 53.9058 25.6138 53.8958C25.6047 53.8858 25.5931 53.8785 25.5802 53.8744C25.5672 53.8704 25.5534 53.8699 25.5401 53.8729C25.4313 53.8979 25.3329 53.9454 25.245 54.0152C23.2168 55.6287 22.1699 57.6823 21.4549 60.1252C21.4473 60.1514 21.431 60.1706 21.406 60.1829C21.2965 60.2364 21.2223 60.3182 21.1833 60.4282C21.1734 60.4562 21.1554 60.4771 21.1292 60.4911C20.8789 60.6238 20.6228 60.6648 20.3608 60.6142C19.9749 60.54 19.933 60.1593 19.7933 59.8659C19.7805 59.838 19.7622 59.8336 19.7383 59.8528C19.1877 60.2911 18.5681 60.4803 17.8795 60.4204C17.6199 60.3977 17.4141 60.3185 17.2622 60.1829C16.7916 59.7638 16.7436 58.8645 16.8475 58.3205C16.8684 58.2111 16.8751 58.1217 16.8675 58.0525C16.8617 58.0042 16.8437 57.9989 16.8134 58.0368C16.1411 58.8619 15.1606 60.0231 14.0945 60.1855C13.3087 60.3051 12.6679 59.8249 12.5971 59.012C12.4784 57.6657 13.3297 56.2163 13.892 55.0036C14.1801 54.3819 14.4508 53.5638 14.807 52.8671C14.8943 52.6959 14.9685 52.4419 15.0794 52.2384C15.2462 51.9346 15.7307 51.8857 16.0381 51.9337C16.0666 51.9378 16.0878 51.9523 16.1018 51.9774C16.252 52.2428 16.5628 52.2629 16.5855 52.6261C16.603 52.9183 16.5433 53.1858 16.4065 53.4285C15.7674 54.5618 15.337 55.5641 14.8183 56.6424C14.5695 57.1602 14.4307 57.5784 14.2997 58.0988C14.2947 58.1179 14.2946 58.1379 14.2994 58.1571C14.3042 58.1762 14.3137 58.1939 14.3271 58.2084C14.3405 58.2229 14.3573 58.2338 14.376 58.2401C14.3947 58.2465 14.4147 58.248 14.4342 58.2446C14.7485 58.1904 15.1938 57.7155 15.4042 57.4754C16.025 56.769 16.6117 56.1316 17.1268 55.2507C17.6385 54.3758 18.1859 53.1989 18.8216 52.2105C18.839 52.1831 18.8638 52.1683 18.8958 52.166C18.9575 52.1619 19.0055 52.1313 19.0398 52.0743C19.055 52.0498 19.0759 52.0327 19.1027 52.0228C19.8824 51.7469 20.4255 52.4454 20.0771 53.1639C19.2991 54.7705 18.55 56.3735 18.3029 58.1171C18.2703 58.3493 18.2831 58.5731 18.3413 58.7885C18.3473 58.8106 18.3605 58.8299 18.379 58.8434C18.3974 58.8569 18.4198 58.8637 18.4426 58.8627C19.3603 58.8234 20.7878 56.6686 21.0253 55.8636C21.3344 54.8153 21.6804 53.7798 22.0634 52.7571C22.1979 52.3979 22.3259 52.1616 22.4476 52.0481C22.8387 51.6823 23.6726 51.8647 23.7913 52.4532C23.869 52.8374 23.4656 53.6922 23.3556 54.0728ZM29.3993 58.833C29.9109 59.3019 31.2162 57.7181 31.5009 57.388C31.9462 56.872 33.3161 54.7058 32.3827 54.2195C31.6545 53.8406 30.6173 55.1869 30.3248 55.7082C30.0375 56.2189 28.9147 58.3878 29.3993 58.833ZM25.0302 66.382C26.188 66.8386 28.08 65.5726 28.8911 64.7877C29.3225 64.3703 29.6996 63.8168 30.0445 63.299C30.0464 63.2962 30.0474 63.293 30.0475 63.2896C30.0475 63.2863 30.0467 63.283 30.0449 63.2801C30.0432 63.2773 30.0406 63.275 30.0376 63.2736C30.0346 63.2721 30.0312 63.2715 30.0279 63.2719C29.0489 63.4 28.0867 63.5854 27.1414 63.8281C26.2622 64.0542 25.1368 64.4402 24.6146 65.1928C24.2698 65.6913 24.5011 66.1733 25.0302 66.382Z" fill="#202020"/>
</svg>
